<svg xmlns="http://www.w3.org/2000/svg" width="20" height="20" viewBox="0 0 20 20">
  <path id="rocket-solid" d="M6.118,15.035,4.91,13.793a1.233,1.233,0,0,1-.336-1.223c.117-.348.273-.8.5-1.32H.938A.936.936,0,0,1,.131,9.836l2.05-3.457A2.844,2.844,0,0,1,4.6,4.965H7.813c.094-.121.188-.266.281-.406A10.285,10.285,0,0,1,18.9.206a1.1,1.1,0,0,1,.891.89,10.284,10.284,0,0,1-4.352,10.811,3.683,3.683,0,0,1-.441.246V15.4a2.813,2.813,0,0,1-1.379,2.422l-3.457,2.047a.933.933,0,0,1-1.414-.8V14.875c-.551.188-1.031.348-1.395.465a1.223,1.223,0,0,1-1.238-.3ZM15,6.527a1.54,1.54,0,0,0,1.563-1.563,1.563,1.563,0,0,0-3.125,0A1.54,1.54,0,0,0,15,6.527Z" transform="translate(0 0)" fill="#21bda0"/>
</svg>
